<svg width="361" height="361" viewBox="0 0 361 361" fill="none" xmlns="http://www.w3.org/2000/svg">
<path d="M192.977 52.5099C275.189 52.5099 341.835 116.551 341.835 195.549C341.835 220.73 335.055 244.385 323.167 264.936C315.47 262.543 290.885 255.914 269.902 261.446C269.433 261.569 268.917 261.67 268.376 261.758C284.985 244.303 295.119 221.064 295.119 195.549C295.119 141.343 249.389 97.3998 192.977 97.3998C136.566 97.3998 90.8354 141.343 90.8354 195.549C90.8354 201.674 91.4241 207.667 92.5418 213.482L91.7676 213.112C91.7676 213.112 65.4806 203.46 44.6735 207.862C44.3132 203.802 44.119 199.698 44.119 195.549C44.119 116.551 110.765 52.5099 192.977 52.5099V52.5099Z" fill="url(#paint0_linear_3_28)"/>
<path fill-rule="evenodd" clip-rule="evenodd" d="M353.702 311.366C268.935 305.354 269.611 381.656 169.549 355.533C159.626 352.432 137.694 348.029 102.231 321.971C103.133 320.901 104.965 314.387 113.31 315.47C114.156 315.54 114.969 315.619 115.749 315.707C128.332 317.124 132.638 320.852 137.243 324.653C143.614 326.942 151.677 328.499 158.893 330.423C192.103 341.079 186.728 333.619 211.579 329.448C221.33 327.143 244.953 313.61 255.639 308.563C261.352 305.725 259.273 299.742 249.537 302.401L221.094 310.168C211.91 313.091 200.872 307.582 213.527 301.345C229.677 293.386 245.391 285.995 262.774 279.562C269.506 277.07 272.644 276.189 279.802 275.503C327.596 270.928 330.238 287.641 353.702 311.366V311.366Z" fill="#006828"/>
<path fill-rule="evenodd" clip-rule="evenodd" d="M118.154 313.151C118.474 311.949 121.118 307.604 130.65 308.48C130.782 308.492 130.916 308.504 131.051 308.517C148.402 316.386 154.252 319.459 178.283 325.907C178.615 328.629 177.403 328.284 176.676 328.345C144.48 327.89 136.372 316.63 118.154 313.148V313.151Z" fill="#006828"/>
<path fill-rule="evenodd" clip-rule="evenodd" d="M0 257.078C84.7676 251.067 84.0916 327.368 184.154 301.245C194.076 298.143 216.009 293.741 251.472 267.683C250.569 266.613 248.737 260.099 240.393 261.182C239.546 261.252 238.734 261.331 237.954 261.418C225.37 262.836 221.064 266.564 216.459 270.365C210.089 272.654 202.027 274.212 194.81 276.135C161.6 286.791 166.975 279.331 142.124 275.16C132.373 272.855 108.75 259.322 98.0628 254.275C92.3505 251.437 94.4302 245.454 104.165 248.113L132.609 255.881C141.794 258.803 152.83 253.294 140.175 247.057C124.026 239.098 108.312 231.708 90.9288 225.274C84.1963 222.783 81.0583 221.901 73.9002 221.216C26.1063 216.64 23.4647 233.353 0 257.078V257.078Z" fill="#006828"/>
<path fill-rule="evenodd" clip-rule="evenodd" d="M235.549 258.864C235.228 257.662 232.585 253.317 223.053 254.192C222.92 254.204 222.787 254.217 222.651 254.229C205.3 262.098 199.451 265.172 175.419 271.62C175.088 274.342 176.3 273.997 177.026 274.057C209.222 273.603 217.331 262.343 235.549 258.861V258.864Z" fill="#006828"/>
<path fill-rule="evenodd" clip-rule="evenodd" d="M31.4275 108.217L31.8065 106.502C35.4759 107.864 38.9393 108.296 42.1936 107.795C45.4639 107.355 47.8762 106.089 49.4322 103.998C50.1328 103.057 50.3712 102.011 50.1497 100.859C49.965 99.7321 49.3775 98.8261 48.3832 98.1432C48.1456 97.98 47.6825 97.793 46.9962 97.5869C46.7069 99.916 45.8759 102.24 44.5071 104.565L36.1862 101.219C37.2587 99.5328 37.958 97.7477 38.2782 95.8624C38.5346 93.9845 38.3898 92.2015 37.8481 90.51C37.2844 90.8622 36.7318 91.4025 36.1882 92.1336C35.2274 93.4247 34.59 94.8037 34.2794 96.2751C33.9404 97.7777 33.9496 99.2588 34.3054 100.714L23.5211 97.6511C23.6767 95.0225 24.5717 92.605 26.2066 90.4129C27.3721 88.843 30.0187 88.0306 34.1497 87.9701C38.2388 87.8833 41.3741 88.59 43.5611 90.0925C44.1157 90.4752 44.5825 90.9 44.9557 91.3676C45.329 91.8341 45.5633 92.2864 45.6602 92.7173C46.4124 91.7093 46.9672 90.7196 47.3262 89.7562C47.6704 88.7268 47.7852 87.8087 47.6703 86.9926L42.9006 83.716L40.1784 87.3752L33.6189 82.8699L43.7329 69.2779L50.2892 73.7831L47.9576 76.9215L71.2072 92.8946L63.7672 98.0517L54.2278 91.4978C53.6312 92.2999 53.0346 92.9412 52.436 93.4229C51.8614 93.8716 51.3158 94.1576 50.807 94.2805C51.5831 94.2866 52.4322 94.4749 53.3568 94.8472C54.2427 95.192 55.1414 95.6809 56.0564 96.3081C57.6835 97.4256 58.6423 99.0057 58.9283 101.044C59.173 103.056 58.6482 104.932 57.3504 106.676C55.3281 109.392 51.9053 110.886 47.0827 111.153C42.2323 111.455 37.0126 110.476 31.4262 108.217H31.4275ZM53.7371 71.1686L48.1912 65.547L60.1248 54.672L65.6718 60.2935L62.7618 62.9448L82.4318 82.8737L74.1058 86.5769L56.4548 68.6921L53.7371 71.1686ZM64.8556 53.6426C63.8109 52.2238 63.472 50.6136 63.8381 48.8133C64.2333 47.0491 65.2127 45.6352 66.7778 44.5715C68.2345 43.5818 70.3575 43.3171 73.1527 43.7762C75.9762 44.2714 77.9095 45.2281 78.9529 46.6493C79.6574 47.6054 79.9058 48.6435 79.694 49.7664C79.5106 50.9273 78.927 51.8424 77.9442 52.5093C77.4716 52.8321 76.7323 52.9029 75.7257 52.7226C74.7501 52.582 73.6209 52.1993 72.3418 51.5721C72.4568 52.4713 72.8396 53.3638 73.4873 54.2441C73.9689 54.8976 74.4647 55.4209 74.9773 55.8207C75.4881 56.2192 75.9691 56.4674 76.4231 56.5628C77.8694 54.8903 79.2932 53.4903 80.7027 52.3607L86.0269 57.3685C84.5205 59.2537 83.4462 61.0191 82.8018 62.6672C82.1923 64.2871 82.1426 65.4413 82.6501 66.1315C82.8767 66.4395 83.2376 66.5954 83.7335 66.604C84.2294 66.6101 84.6962 66.4658 85.1333 66.1693C86.4072 65.3031 87.6101 63.9705 88.7375 62.1648C89.8338 60.3871 90.8296 58.2175 91.7265 55.6513L84.7421 46.1639L82.5583 47.6489L77.9023 41.3243L90.4577 32.7901L95.1143 39.1133L91.8382 41.3396L108.343 63.7639L99.5559 66.2885L97.0158 62.839C96.0879 64.6185 94.9129 65.9908 93.4944 66.956C91.2377 68.4892 87.9795 68.9226 83.7187 68.252C79.4578 67.5851 76.5386 66.1761 74.9586 64.0292C74.4208 63.2999 74.1535 62.4178 74.1574 61.3816C74.1187 60.3693 74.3827 59.3888 74.9367 58.4358C72.6491 58.1478 70.632 57.5953 68.8809 56.7738C67.0995 55.913 65.7583 54.8677 64.8556 53.6426V53.6426ZM73.5627 49.4491C74.0715 49.1025 74.4279 48.6592 74.6293 48.1182C74.7701 47.5656 74.6973 47.0962 74.4157 46.7129C74.1336 46.3303 73.7512 46.0723 73.2715 45.9372C72.7827 45.8676 72.3567 45.9556 71.9919 46.202C71.6645 46.4257 71.4739 46.8707 71.4191 47.5401C71.4061 48.1863 71.5217 48.9398 71.7741 49.8011C72.0615 49.8947 72.3599 49.8911 72.6731 49.7957C72.9752 49.7652 73.2715 49.6472 73.5627 49.4491V49.4491ZM97.5007 37.6004L93.8404 30.697L108.497 23.5216L112.158 30.425L108.583 32.1732L121.559 56.6478L112.482 57.9278L100.837 35.9664L97.5007 37.6004ZM113.787 29.404L110.843 22.192L135.993 12.7138L138.935 19.9241L131.776 22.6235C133.409 23.2183 134.778 23.9892 135.881 24.9355C137.046 25.9093 137.858 26.9626 138.323 28.0996C139.214 30.2844 138.852 32.5651 137.238 34.9388C135.62 37.3143 133.213 39.1028 130.017 40.3089C133.793 42.5145 139.755 43.9236 147.907 44.5349L147.597 47.2993C139.665 46.4049 132.99 44.8351 127.574 42.591C122.18 40.2865 118.886 37.6681 117.69 34.7413C117.351 33.9111 117.333 33.1073 117.639 32.3377C117.948 31.565 118.496 31.0332 119.287 30.7348C120.322 30.3436 121.642 30.3521 123.243 30.7531C124.829 31.1138 126.564 31.8467 128.452 32.9507C129.862 32.0668 130.87 30.9561 131.471 29.6198C132.056 28.2389 132.1 26.9363 131.6 25.7125C131.278 24.9257 130.717 24.1286 129.908 23.3248L113.787 29.404ZM165.186 13.9144L164.983 6.16857L204.22 5.22293L204.422 12.9669L189.45 13.3287L189.553 17.2C190.206 16.7147 190.869 16.4654 191.538 16.4495C194.123 16.3859 196.522 17.7374 198.735 20.5011C200.99 23.2183 202.163 26.2436 202.25 29.5739C202.295 31.3118 201.781 32.9441 200.706 34.473C199.674 35.9542 198.254 37.0685 196.446 37.8155L192.565 30.1597C193.991 30.0313 195.154 29.3454 196.058 28.1044C197.005 26.8586 197.459 25.3927 197.413 23.7012C197.407 23.4206 197.309 23.1657 197.125 22.9352C196.897 22.7518 196.65 22.6669 196.383 22.6724C195.135 22.7029 193.938 22.9427 192.792 23.3932C191.641 23.8437 190.633 24.4776 189.763 25.2974L190.17 40.7871L181.404 38.1792L181.24 31.8437C180.313 32.3358 179.541 32.589 178.917 32.6048C177.092 32.6476 174.767 31.6016 171.947 29.4614C169.127 27.3213 167.695 25.5261 167.657 24.0687L167.39 13.8624L165.186 13.9144ZM176.466 28.4371C178.787 26.6906 180.302 25.0101 181.018 23.3951L180.76 13.5384L176.082 13.6508L176.466 28.4371ZM207.407 13.3238L208.417 5.63671L224.736 7.61921L223.726 15.3045L219.747 14.8228L216.161 42.0707L207.905 38.2276L211.121 13.7743L207.407 13.3238ZM227.392 14.75L229.583 7.29517L269.737 18.191L267.546 25.6477L247.596 20.2339C248.833 21.544 249.701 22.9267 250.201 24.3792C250.7 25.831 250.777 27.1465 250.432 28.3214C250.166 29.2237 249.685 29.9971 248.985 30.6365C248.303 31.2307 247.525 31.581 246.663 31.6879C247.534 33.2908 248.092 34.8575 248.34 36.3876C248.627 37.9281 248.592 39.3108 248.231 40.5304C247.66 42.4731 246.481 43.9597 244.699 44.9855C242.915 46.0149 241.035 46.2624 239.062 45.7276C235.846 44.854 233.148 42.0469 230.973 37.3112C228.799 32.5737 227.547 26.7443 227.218 19.825L229.026 19.5823C229.216 23.8296 230.165 27.4547 231.876 30.458C233.631 33.4692 235.817 35.3325 238.435 36.0428C239.849 36.4273 241.179 36.396 242.42 35.954C243.621 35.4986 244.373 34.7498 244.678 33.71C244.73 33.5315 244.724 33.3096 244.666 33.0498C244.646 32.8004 244.568 32.5112 244.435 32.1817L243.344 32.1054C240.225 31.8438 238.344 31.6255 237.7 31.4506L236.752 21.6792C237.07 22.0105 237.562 22.3154 238.219 22.5923C238.911 22.9249 239.749 23.225 240.734 23.4934C241.634 23.7379 242.464 23.67 243.225 23.291C244.015 22.9682 244.523 22.4225 244.748 21.6553C244.868 21.2482 244.91 20.8685 244.876 20.5164C244.895 20.1337 244.837 19.7767 244.702 19.4472L227.392 14.75ZM249.857 46.826L250.612 37.1534C251.751 37.7042 252.467 38.0215 252.767 38.1028C254.099 38.4634 255.417 38.3821 256.728 37.8601C257.998 37.3246 258.79 36.5171 259.109 35.4326C259.189 35.1624 259.135 34.8783 258.942 34.5836C258.739 34.3324 258.465 34.1587 258.122 34.0671C257.351 33.8574 256.341 33.8261 255.091 33.9771C253.801 34.1141 252.292 34.4362 250.568 34.9442L251.55 25.6958C252.864 25.3217 254.359 25.3616 256.032 25.8158C258.047 26.3629 259.581 28.3178 260.633 31.6756C261.669 35.0775 261.739 38.3181 260.835 41.3898C260.196 43.5581 258.801 45.1553 256.647 46.1811C254.522 47.2643 252.258 47.4776 249.857 46.826V46.826ZM255.106 1.99276L263.006 0L266.997 7.13081L258.918 9.04541L255.106 1.99276ZM271.029 28.5654L274.69 21.662L301.141 34.6129L297.482 41.5163L292.658 39.1531L288.165 47.625L279.227 43.2494C278.235 42.7622 277.267 42.605 276.326 42.778C275.367 42.8886 274.697 43.2976 274.322 44.0098C274.302 44.0526 274.296 44.1541 274.309 44.3185C274.341 44.5453 274.335 44.6999 274.289 44.783C278.876 45.1847 282.344 45.9591 284.688 47.1047C285.96 47.7288 286.875 49.2589 287.435 51.6913C287.933 54.1487 287.771 56.1521 286.949 57.6992C285.841 59.7923 283.966 61.1126 281.324 61.6622C278.679 62.213 276.046 61.8475 273.426 60.5638C270.408 59.0857 268.186 56.5743 266.761 53.0343C265.316 49.5322 264.933 45.6322 265.614 41.3262L267.735 41.5738C267.34 44.0153 267.844 46.37 269.243 48.6367C270.644 50.9015 272.693 52.6969 275.395 54.0186C277.063 54.8346 278.904 55.183 280.921 55.0638C282.934 54.9422 284.197 54.4018 284.706 53.4402C284.839 53.189 284.931 52.9691 284.98 52.7851C284.986 52.5772 284.967 52.4334 284.907 52.3515C283.386 52.7696 281.949 52.9324 280.593 52.8492C279.175 52.7869 277.93 52.4921 276.857 51.967C274.831 50.9761 273.252 48.6209 272.121 44.9078C271.011 41.149 270.999 38.2464 272.088 36.1967C272.601 35.2333 273.459 34.6006 274.671 34.2974C275.82 34.0169 276.97 34.1586 278.125 34.7241L284.976 38.0783L286.107 35.9438L271.029 28.5654ZM288.494 10.9184C290.712 11.1648 293.324 12.2077 296.331 14.0495C297.42 14.7189 298.204 16.0063 298.683 17.9142C299.173 19.8844 299.292 22.2127 299.042 24.8987L298.57 33.3811L295.751 31.6536C296.02 28.6992 295.992 26.2314 295.667 24.2508C295.343 22.2702 294.786 21.0385 293.996 20.555C293.093 20.0018 292.117 19.6814 291.066 19.5928L288.219 19.1006L288.494 10.9184ZM293.511 56.6355C294.307 55.7461 295.248 55.2216 296.329 55.0651C297.444 54.8732 298.388 55.0957 299.164 55.7412C299.774 56.2455 300.206 56.9749 300.467 57.9334C300.757 58.9212 300.873 60.0368 300.811 61.2882C301.807 61.5529 302.896 61.5546 304.073 61.2911C305.217 61.0002 306.339 60.5033 307.441 59.8015C305.149 56.9767 303.809 54.0082 303.421 50.8979C303.031 47.7858 303.714 45.2563 305.469 43.2977C306.714 41.9101 308.303 41.1527 310.245 41.0231C312.185 40.8947 313.881 41.43 315.333 42.6325C317.595 44.5055 318.318 47.7392 317.499 52.3276C316.711 56.9435 314.723 61.0296 311.535 64.5874C310.003 66.2941 308.094 67.5038 305.81 68.216C303.524 68.8621 301.187 68.9416 298.8 68.455C298.667 69.5205 298.659 70.4148 298.781 71.1337C298.869 71.8874 299.081 72.4058 299.42 72.6845C299.723 72.9358 300.075 73.102 300.472 73.1839C300.869 73.2671 301.266 73.2531 301.656 73.1412L299.857 79.0866C299.365 79.2407 298.823 79.2547 298.226 79.1355C297.663 78.9778 297.126 78.6881 296.621 78.2688C295.808 77.5982 295.457 76.2852 295.565 74.3284C295.603 72.3778 296.097 70.0902 297.04 67.4634C296.306 67.1651 295.636 66.7647 295.03 66.2604C293.407 64.9192 292.455 63.3238 292.17 61.4783C291.884 59.5667 292.331 57.9536 293.511 56.6368L293.511 56.6355ZM309.958 86.5243L305.289 78.9368L322.032 60.2636L320.258 58.7958L325.52 52.9274L336.917 62.364L331.655 68.2332L328.615 65.7169L309.958 86.5243ZM309.606 57.8795C310.223 57.5206 310.946 56.8794 311.773 55.9557C312.725 54.7588 313.285 53.5785 313.447 52.414C313.677 51.2397 313.467 50.3869 312.827 49.8569C312.185 49.3245 311.44 49.1079 310.585 49.207C309.732 49.3054 309.002 49.6918 308.394 50.3698C307.726 51.1143 307.532 52.3172 307.813 53.9751C308.059 55.6665 308.658 56.968 309.606 57.8795V57.8795ZM334.157 71.0145L340.483 66.2109L361 91.1665L354.675 95.9682L352.189 92.9448L329.759 109.971L326.672 101.669L335.585 94.9028L330.612 88.8516C330.028 90.1133 329.086 91.238 327.782 92.2271C327.054 92.7815 326.262 93.0279 325.405 92.9692C324.545 92.9142 323.855 92.5634 323.33 91.9239C322.14 90.477 321.949 88.2781 322.755 85.3188C323.532 82.3259 324.898 80.0893 326.854 78.602C327.966 77.7602 329.265 77.4845 330.749 77.7742C332.303 78.0719 333.588 78.8415 334.61 80.0855L342.487 89.6627L346.801 86.3893L334.157 71.0145Z" fill="#E30016"/>
<path fill-rule="evenodd" clip-rule="evenodd" d="M112.782 158.486V155.988H133.091V158.486H130.241V173.105H127.389V165.642H124.148L123.008 163.073H127.389V158.486H122.473V162.32C122.473 163.28 122.235 164.091 121.761 164.751C121.309 165.437 120.75 165.779 120.086 165.779C119.801 165.779 119.587 165.766 119.444 165.748C119.279 165.723 119.171 165.687 119.123 165.644L123.648 172.182L121.226 173.621L113.601 162.391L116.06 160.818C116.607 161.754 117.033 162.391 117.343 162.734C117.7 163.213 118.02 163.454 118.305 163.454C118.66 163.454 118.97 163.327 119.232 163.076C119.491 162.849 119.623 162.563 119.623 162.221V158.489L112.782 158.486ZM119.158 151.673L120.513 149.618L128.993 155.679L124.36 148.114L126.677 147.293L130.418 155.816H127.354L119.158 151.673ZM132.377 158.486V155.988H134.906C134.67 155.371 134.551 154.744 134.551 154.105C134.551 152.621 135.205 151.365 136.51 150.339C137.816 149.289 139.385 148.764 141.213 148.764C143.801 148.764 146.177 149.403 148.339 150.68C150.524 151.937 152.162 153.649 153.255 155.816H150.334C149.503 154.423 148.267 153.328 146.629 152.529C145.013 151.73 143.208 151.332 141.213 151.332C140.168 151.332 139.266 151.604 138.504 152.153C137.769 152.676 137.401 153.328 137.401 154.105C137.401 154.674 137.53 155.303 137.793 155.988H140.928V158.486H138.078V173.105H135.228V158.486H132.377ZM140.216 158.486V155.988H157.603V158.486H154.752V173.105H151.902V164.375H147.2C146.962 164.375 146.772 164.456 146.629 164.614C146.463 164.751 146.38 164.934 146.38 165.163V166.873C146.38 167.172 146.285 167.433 146.095 167.662C145.904 167.868 145.679 167.97 145.418 167.97C144.729 167.97 143.85 167.341 142.782 166.085C141.736 164.855 141.213 163.827 141.213 163.006C141.213 162.687 141.345 162.401 141.607 162.15C141.843 161.921 142.141 161.807 142.496 161.807H151.902V158.486H140.216ZM156.89 158.486V155.988H179.693V158.486H169.716V161.431C170.002 161.11 170.381 160.871 170.857 160.711C171.332 160.528 171.878 160.437 172.495 160.437C174.087 160.437 175.441 160.94 176.558 161.944C177.674 162.949 178.23 164.158 178.23 165.572C178.23 166.577 177.923 167.603 177.304 168.653C176.712 169.703 175.857 170.675 174.74 171.564L172.637 169.715C173.516 169.008 174.193 168.299 174.669 167.593C175.143 166.863 175.381 166.189 175.381 165.572C175.381 164.865 175.108 164.261 174.561 163.759C173.991 163.255 173.315 163.006 172.531 163.006C171.984 163.006 171.462 163.155 170.963 163.451C170.441 163.77 170.026 164.191 169.716 164.718V173.105H166.866V169.611C166.605 169.817 166.213 169.979 165.689 170.093C165.168 170.207 164.551 170.263 163.837 170.263C162.294 170.263 160.987 169.773 159.919 168.79C158.826 167.809 158.281 166.622 158.281 165.231C158.281 163.838 158.826 162.64 159.919 161.637C160.987 160.654 162.294 160.164 163.837 160.164C164.597 160.164 165.406 160.311 166.261 160.609L165.549 162.971L165.155 162.902C164.491 162.787 164.075 162.732 163.909 162.732C163.149 162.732 162.496 162.971 161.95 163.451C161.403 163.952 161.13 164.546 161.13 165.231C161.13 165.915 161.392 166.497 161.914 166.977C162.461 167.456 163.101 167.695 163.837 167.695C164.504 167.695 165.107 167.603 165.655 167.423C166.177 167.239 166.581 166.988 166.866 166.667V158.486H156.89ZM187.387 158.486V155.988H203.207V158.486H200.963V162.219H193.872C193.47 162.219 193.113 162.297 192.803 162.458C192.518 162.595 192.377 162.777 192.377 163.006C192.402 163.233 192.554 163.531 192.84 163.896C193.124 164.238 193.528 164.614 194.05 165.025C194.788 164.706 195.595 164.546 196.473 164.546C197.875 164.546 199.073 164.947 200.071 165.745C201.069 166.543 201.568 167.514 201.568 168.653C201.568 169.202 201.402 169.74 201.069 170.263C200.737 170.812 200.275 171.29 199.68 171.701L197.756 170.23C198.066 169.979 198.301 169.715 198.468 169.441C198.634 169.167 198.719 168.904 198.719 168.653C198.719 168.222 198.505 167.856 198.077 167.56C197.626 167.261 197.092 167.112 196.473 167.112C195.333 167.112 194.359 167.4 193.552 167.97C192.745 168.54 192.34 169.235 192.34 170.058C192.34 171.221 192.935 172.226 194.121 173.072C195.309 173.893 196.735 174.302 198.397 174.302H201.603V176.87H198.325C195.88 176.87 193.801 176.21 192.091 174.884C190.358 173.54 189.49 171.93 189.49 170.058C189.49 169.327 189.681 168.63 190.06 167.97C190.417 167.309 190.927 166.759 191.591 166.327C190.951 165.87 190.44 165.345 190.06 164.751C189.705 164.158 189.525 163.553 189.525 162.938C189.525 162.025 189.953 161.247 190.808 160.609C191.687 159.97 192.732 159.651 193.944 159.651H198.113V158.486H187.387ZM202.494 158.486V155.988H211.046V158.486H208.196V173.105H205.346V158.486H202.494ZM198.078 148.866L199.967 147.293L208.125 155.816H205.524L198.078 148.866ZM121.19 193.926V191.427H139.326V193.926H136.475V208.546H133.625V198.891H127.14C126.69 198.891 126.296 199.028 125.965 199.301C125.656 199.575 125.502 199.906 125.502 200.294C125.502 201.414 125.905 202.554 126.714 203.718C127.521 204.881 128.638 205.921 130.061 206.834L128.423 208.715C126.618 207.461 125.206 206.08 124.182 204.574C123.161 203.089 122.651 201.663 122.651 200.294C122.651 199.199 123.092 198.263 123.971 197.487C124.849 196.711 125.905 196.324 127.14 196.324H133.625V193.926H121.19ZM124.148 212.928L125.394 211.181C126.416 212.003 127.664 212.64 129.135 213.098C130.609 213.533 132.199 213.749 133.911 213.749C134.765 213.749 135.501 213.556 136.12 213.168C136.736 212.755 137.046 212.277 137.046 211.729C137.046 211.341 136.855 211.011 136.475 210.736C136.096 210.462 135.644 210.326 135.122 210.326C134.765 210.326 134.409 210.405 134.053 210.565C133.72 210.724 133.424 210.953 133.162 211.25L131.558 209.539C132.175 209.036 132.794 208.66 133.411 208.407C134.006 208.133 134.564 207.998 135.085 207.998C136.297 207.998 137.331 208.362 138.186 209.091C139.041 209.823 139.469 210.702 139.469 211.729C139.469 212.938 138.922 213.966 137.829 214.81C136.76 215.654 135.453 216.078 133.911 216.078C132.011 216.078 130.228 215.803 128.566 215.255C126.88 214.73 125.407 213.955 124.148 212.928V212.928ZM138.613 193.926V191.427H155.75V193.926H152.9V208.546H150.049V201.698H144.563V203.41C144.563 203.592 144.481 203.753 144.314 203.89C144.171 204.025 143.981 204.094 143.743 204.094C143.293 204.094 142.473 203.547 141.284 202.452C140.12 201.379 139.538 200.625 139.538 200.192C139.538 199.896 139.61 199.644 139.753 199.438C139.919 199.232 140.109 199.131 140.324 199.131H141.713V193.926H138.613ZM144.563 199.131H150.049V193.926H144.563V199.131ZM155.038 193.926V191.427H168.184V193.926H155.038ZM155.857 195.706H166.618V198.274H164.051C163.292 198.639 162.686 199.132 162.234 199.746C161.784 200.363 161.559 201.013 161.559 201.698C161.559 202.108 161.736 202.452 162.093 202.725C162.448 203.022 162.888 203.17 163.411 203.17C164.384 203.17 165.358 202.758 166.332 201.937C167.329 201.093 168.184 199.975 168.898 198.582V202.315C168.136 203.387 167.271 204.221 166.298 204.813C165.347 205.43 164.384 205.738 163.411 205.738C162.104 205.738 161 205.339 160.098 204.54C159.17 203.763 158.707 202.817 158.707 201.698C158.707 201.013 158.85 200.374 159.136 199.781C159.421 199.187 159.812 198.686 160.31 198.274H155.857V195.706ZM167.472 193.926V191.427H184.894V193.926H182.045V208.546H179.195V204.335C178.743 204.791 178.185 205.134 177.521 205.362C176.83 205.612 176.094 205.738 175.311 205.738C173.435 205.738 171.832 205.042 170.501 203.649C169.171 202.258 168.506 200.568 168.506 198.582C169.361 198.788 169.908 198.891 170.144 198.891C170.906 198.891 171.546 198.65 172.068 198.172C172.616 197.669 172.888 197.076 172.888 196.392C172.888 195.934 172.782 195.491 172.568 195.056C172.33 194.623 172.01 194.247 171.605 193.926H167.472ZM171.748 200.911C172.01 201.594 172.462 202.143 173.102 202.554C173.767 202.964 174.504 203.17 175.311 203.17C175.952 203.17 176.618 202.987 177.306 202.621C177.995 202.258 178.624 201.745 179.195 201.081V193.926H174.669C175.026 194.316 175.287 194.725 175.454 195.16C175.644 195.569 175.738 195.982 175.738 196.392C175.738 197.51 175.359 198.49 174.6 199.336C173.862 200.18 172.912 200.705 171.748 200.911V200.911ZM184.183 193.926V191.427H192.734V193.926H189.884V208.546H187.034V193.926H184.183ZM192.022 193.926V191.427H212.331V193.926H209.481V208.546H206.629V201.081H203.388L202.248 198.513H206.629V193.926H201.713V197.761C201.713 198.719 201.475 199.53 201.001 200.192C200.549 200.876 199.991 201.218 199.327 201.218C199.041 201.218 198.827 201.206 198.684 201.187C198.52 201.163 198.411 201.132 198.364 201.083L202.888 207.623L200.467 209.061L192.841 197.831L195.3 196.257C195.847 197.193 196.273 197.831 196.583 198.174C196.94 198.652 197.26 198.893 197.545 198.893C197.9 198.893 198.21 198.766 198.472 198.515C198.731 198.288 198.863 198.002 198.863 197.661V193.929L192.022 193.926ZM211.617 193.926V191.427H220.168V193.926H217.318V208.546H214.469V193.926H211.617ZM219.456 193.926V191.427H236.452V193.926H232.782V198.993C233.446 199.428 233.957 200.02 234.314 200.772C234.693 201.526 234.883 202.349 234.883 203.238C234.883 204.699 234.301 205.943 233.137 206.971C231.973 207.998 230.573 208.511 228.933 208.511C226.843 208.511 224.979 207.814 223.339 206.423C221.725 205.053 220.916 203.477 220.916 201.698C220.916 200.306 221.451 199.107 222.52 198.104C223.589 197.122 224.885 196.631 226.403 196.631H229.931V193.926H219.456ZM223.768 201.698C223.768 202.817 224.289 203.798 225.335 204.642C226.38 205.51 227.58 205.943 228.933 205.943C229.788 205.943 230.525 205.68 231.142 205.156C231.737 204.607 232.034 203.959 232.034 203.203C232.034 202.794 231.902 202.337 231.642 201.836C231.38 201.31 231.012 200.772 230.536 200.226L232.034 199.199H226.368C225.655 199.199 225.038 199.438 224.517 199.918C224.017 200.419 223.768 201.013 223.768 201.698V201.698ZM228.97 187.832C228.97 186.6 229.457 185.55 230.43 184.683C231.427 183.815 232.615 183.382 233.994 183.382C235.679 183.382 237.222 184.146 238.624 185.676C240.003 187.182 240.905 189.098 241.333 191.427H244.289V193.926H241.439V208.546H238.589V193.926H235.738V191.427H238.589C238.304 189.854 237.722 188.539 236.843 187.491C235.965 186.463 235.002 185.948 233.957 185.948C233.364 185.948 232.865 186.132 232.46 186.498C232.034 186.863 231.819 187.296 231.819 187.799C231.819 188.438 232.01 189.054 232.39 189.648C232.769 190.263 233.304 190.79 233.994 191.221H230.716C230.168 190.925 229.742 190.469 229.433 189.854C229.124 189.26 228.97 188.585 228.97 187.832V187.832ZM246.429 208.546V205.12H249.99V208.546H246.429ZM254.98 208.546V205.12H258.541V208.546H254.98ZM263.531 208.546V205.12H267.092V208.546H263.531ZM274.574 195.366V189.715H279.028V195.366L277.746 203.616H275.537L274.574 195.366ZM274.86 210.256V206.765H278.424V210.256H274.86Z" fill="#1B1918"/>
<defs>
<linearGradient id="paint0_linear_3_28" x1="-395.147" y1="474.877" x2="-433.667" y2="684.19" gradientUnits="userSpaceOnUse">
<stop stop-color="#006828"/>
<stop offset="1" stop-color="#009035"/>
</linearGradient>
</defs>
</svg>
